<svg xmlns="http://www.w3.org/2000/svg" x="0px" y="0px"
width="100" height="100"
viewBox="0 0 226 226"
style=" fill:#000000;"><g transform=""><g fill="none" fill-rule="nonzero" stroke="none" stroke-width="1" stroke-linecap="butt" stroke-linejoin="miter" stroke-miterlimit="10" stroke-dasharray="" stroke-dashoffset="0" font-family="none" font-weight="none" font-size="none" text-anchor="none" style="mix-blend-mode: normal"><path d="M0,226v-226h226v226z" fill="none"></path><g id="original-icon" fill="#000"><path d="M98.5925,9.04c-4.27281,0 -8.05125,3.00156 -8.89875,7.20375l-2.11875,10.59375c-14.00141,4.13156 -26.59031,11.21172 -36.86625,21.04625l-9.8875,-3.39c-4.02563,-1.35953 -8.43969,0.45906 -10.59375,4.09625l-14.4075,24.86c-2.13641,3.70781 -1.39484,8.475 1.83625,11.3l7.91,7.0625c-1.67734,6.81531 -2.96625,13.82484 -2.96625,21.1875c0,7.36266 1.30656,14.37219 2.96625,21.1875l-7.91,7.0625c-3.21344,2.825 -3.97266,7.59219 -1.83625,11.3l14.26625,24.86c2.13641,3.70781 6.67406,5.47344 10.735,4.09625l9.8875,-3.39c10.27594,9.83453 22.8825,16.91469 36.86625,21.04625l2.11875,10.59375c0.8475,4.18453 4.62594,7.20375 8.89875,7.20375h28.815c4.27281,0 8.05125,-3.00156 8.89875,-7.20375l2.11875,-10.59375c14.00141,-4.13156 26.59031,-11.21172 36.86625,-21.04625l9.8875,3.39c4.02562,1.35953 8.43969,-0.45906 10.59375,-4.09625l14.4075,-24.86c2.13641,-3.70781 1.37719,-8.475 -1.83625,-11.3l-7.91,-7.0625c1.65969,-6.81531 2.96625,-13.82484 2.96625,-21.1875c0,-7.36266 -1.30656,-14.37219 -2.96625,-21.1875l7.91,-7.0625c3.21344,-2.825 3.97266,-7.59219 1.83625,-11.3l-14.26625,-24.86c-2.13641,-3.70781 -6.67406,-5.47344 -10.735,-4.09625l-9.8875,3.39c-10.27594,-9.83453 -22.8825,-16.91469 -36.86625,-21.04625l-2.11875,-10.59375c-0.8475,-4.18453 -4.62594,-7.20375 -8.89875,-7.20375zM98.5925,18.08h28.815l3.1075,15.5375l2.68375,0.70625c14.61937,3.74312 27.63203,11.3 37.855,21.7525l1.9775,2.11875l2.825,-0.98875l12.1475,-4.09625l14.4075,24.86l-9.74625,8.61625l-2.11875,1.83625l0.70625,2.68375c1.94219,6.99188 3.1075,14.33688 3.1075,21.89375c0,7.55688 -1.16531,14.90188 -3.1075,21.89375l-0.70625,2.68375l2.11875,1.83625l9.74625,8.61625l-14.4075,24.86l-12.28875,-4.09625l-2.68375,-0.98875l-1.9775,2.11875c-10.22297,10.43484 -23.23562,18.00938 -37.855,21.7525l-2.68375,0.70625l-3.1075,15.5375h-28.815l-3.1075,-15.5375l-2.68375,-0.70625c-14.61938,-3.74312 -27.63203,-11.3 -37.855,-21.7525l-1.9775,-2.11875l-2.825,0.98875l-12.1475,4.09625l-14.4075,-24.86l9.74625,-8.61625l2.11875,-1.83625l-0.70625,-2.68375c-1.94219,-6.99187 -3.1075,-14.33687 -3.1075,-21.89375c0,-7.55687 1.14766,-14.90187 3.1075,-21.89375l0.70625,-2.68375l-2.11875,-1.83625l-9.74625,-8.61625l14.4075,-24.86l12.28875,4.09625l2.68375,0.98875l1.9775,-2.11875c10.22297,-10.43484 23.23563,-18.00937 37.855,-21.7525l2.68375,-0.70625zM157.77625,81.21875c-0.19422,0.03531 -0.38844,0.08828 -0.565,0.14125h-3.53125c-0.14125,0 -0.2825,0 -0.42375,0c-2.48953,0.12359 -4.43172,2.24234 -4.30813,4.73188c0.12359,2.48953 2.24234,4.43172 4.73188,4.30813v45.2c-0.14125,0 -0.2825,0 -0.42375,0c-2.48953,0.12359 -4.43172,2.24234 -4.30813,4.73188c0.12359,2.48953 2.24234,4.43172 4.73188,4.30813h9.04c1.62438,0.01766 3.14281,-0.82984 3.97266,-2.24234c0.81219,-1.4125 0.81219,-3.14281 0,-4.55531c-0.82984,-1.4125 -2.34828,-2.26 -3.97266,-2.24234v-45.2c1.62438,0.01766 3.14281,-0.82984 3.97266,-2.24234c0.81219,-1.4125 0.81219,-3.14281 0,-4.55531c-0.82984,-1.4125 -2.34828,-2.26 -3.97266,-2.24234h-3.6725c-0.40609,-0.10594 -0.8475,-0.15891 -1.27125,-0.14125zM74.015,81.36c-1.81859,0.21188 -3.31937,1.50078 -3.81375,3.24875l-15.82,51.415c-0.12359,0.45906 -0.17656,0.93578 -0.14125,1.4125v2.68375c-0.01766,1.62438 0.82984,3.14281 2.24234,3.97266c1.4125,0.81219 3.14281,0.81219 4.55531,0c1.4125,-0.82984 2.26,-2.34828 2.24234,-3.97266v-1.83625l2.26,-7.20375h18.08l2.26,7.20375v1.83625c-0.01766,1.62438 0.82984,3.14281 2.24234,3.97266c1.4125,0.81219 3.14281,0.81219 4.55531,0c1.4125,-0.82984 2.26,-2.34828 2.24234,-3.97266v-2.68375c0.03531,-0.47672 -0.01766,-0.95344 -0.14125,-1.4125l-15.82,-51.415c-0.61797,-2.15406 -2.71906,-3.54891 -4.94375,-3.24875zM107.6325,81.36c-2.15406,0.40609 -3.70781,2.31297 -3.6725,4.52v30.7925c-0.12359,0.60031 -0.12359,1.23594 0,1.83625v21.61125c-0.01766,1.62438 0.82984,3.14281 2.24234,3.97266c1.4125,0.81219 3.14281,0.81219 4.55531,0c1.4125,-0.82984 2.26,-2.34828 2.24234,-3.97266v-18.08h13.56c7.43328,0 13.56,-6.12672 13.56,-13.56v-13.56c0,-7.43328 -6.12672,-13.56 -13.56,-13.56h-18.08c-0.14125,0 -0.2825,0 -0.42375,0c-0.14125,0 -0.2825,0 -0.42375,0zM113,90.4h13.56c2.56016,0 4.52,1.95984 4.52,4.52v13.56c0,2.56016 -1.95984,4.52 -4.52,4.52h-13.56zM74.58,101.4175l6.35625,20.6225h-12.7125z"></path></g><path d="" fill="none"></path><path d="M113,226c-62.40818,0 -113,-50.59182 -113,-113v0c0,-62.40818 50.59182,-113 113,-113v0c62.40818,0 113,50.59182 113,113v0c0,62.40818 -50.59182,113 -113,113z" fill="none"></path><path d="M113,221.48c-59.91185,0 -108.48,-48.56815 -108.48,-108.48v0c0,-59.91185 48.56815,-108.48 108.48,-108.48h0c59.91185,0 108.48,48.56815 108.48,108.48v0c0,59.91185 -48.56815,108.48 -108.48,108.48z" fill="none"></path><path d="M0,226v-226h226v226z" fill="none"></path><path d="M4.52,221.48v-216.96h216.96v216.96z" fill="none"></path></g></g></svg>