<svg version="1.1" id="id_svgCanvas" xmlns="http://www.w3.org/2000/svg" xmlns:xlink="http://www.w3.org/1999/xlink" x="0px" y="0px" width="24px" height="24px" viewBox="0 0 24 24" style="fill: rgb(0, 150, 136);" xml:space="preserve" preserveAspectRatio="none">
<path d="M22,15v-2h-3.081c-0.086-0.657-0.25-1.337-0.484-2.021l3.272-3.272l-1.414-1.414l-2.78,2.78L17,8.081V7c0-2.757-2.243-5-5-5
	S7,4.243,7,7v1.081l-0.514,0.99L3.707,6.293L2.293,7.707l3.272,3.272C5.331,11.663,5.167,12.343,5.081,13H2v2h3.067
	c0.086,0.676,0.259,1.352,0.513,2.005l-3.288,3.288l1.414,1.414l2.851-2.851C7.819,20.678,9.749,22,12,22
	c2.251,0,4.181-1.322,5.442-3.144l2.851,2.851l1.414-1.414l-3.288-3.288c0.255-0.653,0.428-1.33,0.513-2.005H22z M12,4
	c1.654,0,3,1.346,3,3v0.998L9,7.999V7C9,5.346,10.346,4,12,4z M12,20c-2.816,0-5-3.189-5-5.934c0-0.81,0.182-1.728,0.526-2.66
	L8.257,10h7.486l0.73,1.404C16.818,12.336,17,13.256,17,14.066C17,16.811,14.815,20,12,20z M14.707,12.707L13.414,14l1.293,1.293
	l-1.414,1.414L12,15.414l-1.293,1.293l-1.414-1.414L10.586,14l-1.293-1.293l1.414-1.414L12,12.586l1.293-1.293L14.707,12.707z" style="fill: rgb(0, 150, 136);"></path>
</svg>